<?xml version="1.0" standalone="no"?>
<!DOCTYPE svg PUBLIC "-//W3C//DTD SVG 20010904//EN"
 "http://www.w3.org/TR/2001/REC-SVG-20010904/DTD/svg10.dtd">
<svg version="1.0" xmlns="http://www.w3.org/2000/svg"
 width="225.000000pt" height="224.000000pt" viewBox="0 0 225.000000 224.000000"
 preserveAspectRatio="xMidYMid meet">

<g transform="translate(0.000000,224.000000) scale(0.100000,-0.100000)"
fill="#000000" stroke="none">
<path d="M1774 1944 c-3 -19 -3 -44 2 -55 7 -14 9 -4 10 36 0 30 -1 55 -3 55
-1 0 -5 -16 -9 -36z"/>
<path d="M2051 1951 c9 -24 9 -39 0 -59 -11 -26 -11 -26 4 -7 17 21 14 70 -5
89 -6 6 -6 -3 1 -23z"/>
<path d="M271 1928 l2 -43 6 35 7 35 17 -32 c24 -45 37 -41 36 10 -2 29 -3 34
-6 15 -5 -35 -16 -36 -31 -3 -18 38 -32 30 -31 -17z"/>
<path d="M650 1961 c0 -5 -10 -11 -22 -13 -17 -2 -23 -10 -23 -28 0 -20 6 -26
28 -28 26 -3 27 -1 27 37 0 23 -2 41 -5 41 -3 0 -5 -4 -5 -9z m-5 -41 c0 -8
-8 -16 -17 -18 -13 -2 -18 3 -18 18 0 15 5 20 18 18 9 -2 17 -10 17 -18z"/>
<path d="M711 1933 c-1 -41 0 -43 27 -42 23 2 24 2 5 6 -27 5 -31 30 -5 36 15
4 15 5 0 6 -9 0 -19 9 -21 19 -3 9 -5 -2 -6 -25z"/>
<path d="M738 1963 c7 -3 16 -2 19 1 4 3 -2 6 -13 5 -11 0 -14 -3 -6 -6z"/>
<path d="M848 1957 c-7 -19 6 -60 20 -63 7 -1 8 0 2 3 -12 6 -13 40 -1 45 5 2
3 8 -4 15 -10 9 -14 9 -17 0z"/>
<path d="M928 1960 c-9 -27 4 -70 21 -70 13 0 13 2 2 9 -8 5 -12 18 -9 29 6
23 -7 53 -14 32z"/>
<path d="M1061 1928 c0 -36 2 -39 9 -20 5 12 7 29 4 37 -4 10 0 15 15 15 12 0
21 -4 21 -10 0 -5 -4 -10 -10 -10 -14 0 -13 -13 3 -35 12 -16 14 -14 13 21 -2
35 -5 39 -29 42 -26 3 -27 1 -26 -40z"/>
<path d="M1528 1958 c-9 -25 5 -68 21 -67 10 0 11 2 4 6 -15 5 -17 40 -4 45 5
2 3 8 -4 15 -10 9 -15 9 -17 1z"/>
<path d="M1811 1928 l2 -43 6 35 7 35 17 -32 c24 -45 37 -41 36 10 -2 29 -3
34 -6 15 -5 -35 -16 -36 -31 -3 -18 38 -32 30 -31 -17z"/>
<path d="M1901 1933 c-1 -41 0 -43 27 -42 23 2 24 2 5 6 -27 5 -31 30 -5 36
15 4 15 5 0 6 -9 0 -19 9 -21 19 -3 9 -5 -2 -6 -25z"/>
<path d="M1928 1963 c7 -3 16 -2 19 1 4 3 -2 6 -13 5 -11 0 -14 -3 -6 -6z"/>
<path d="M1972 1928 l1 -43 4 38 c3 24 9 37 19 37 16 0 18 -12 4 -26 -7 -7 -3
-17 11 -30 13 -11 19 -13 14 -4 -5 8 -8 27 -7 42 2 24 -1 28 -23 28 -23 0 -25
-3 -23 -42z"/>
<path d="M356 1941 c-3 -5 3 -7 14 -4 15 4 20 0 20 -16 0 -12 -6 -21 -16 -21
-8 0 -12 5 -9 10 3 6 1 10 -4 10 -6 0 -11 -7 -11 -15 0 -9 10 -15 26 -15 22 0
25 4 22 27 -3 28 -30 43 -42 24z"/>
<path d="M421 1915 c1 -28 1 -28 8 -6 10 36 31 38 32 4 1 -27 1 -27 8 -4 9 35
29 37 34 4 4 -28 4 -28 6 3 1 31 0 32 -44 31 -43 -2 -45 -3 -44 -32z"/>
<path d="M534 1936 c-9 -24 3 -46 26 -46 11 0 20 4 20 9 0 5 -9 7 -20 4 -15
-4 -20 0 -20 16 0 21 24 29 33 11 3 -6 4 -5 3 2 -4 19 -35 22 -42 4z"/>
<path d="M771 1918 l1 -33 10 28 c12 33 29 31 40 -4 6 -22 7 -21 5 6 -2 25 -7
31 -29 33 -26 3 -28 1 -27 -30z"/>
<path d="M892 1920 c0 -19 2 -27 5 -17 2 9 2 25 0 35 -3 9 -5 1 -5 -18z"/>
<path d="M973 1923 c8 -16 12 -35 9 -43 -2 -8 -2 -13 1 -9 10 8 38 79 32 79
-3 0 -10 -10 -15 -22 l-9 -23 -7 23 c-3 12 -10 22 -15 22 -5 0 -3 -12 4 -27z"/>
<path d="M1141 1932 c-15 -29 26 -60 43 -33 4 5 -3 7 -14 4 -15 -4 -20 0 -20
16 0 21 24 29 33 11 3 -6 4 -5 3 2 -4 21 -34 21 -45 0z"/>
<path d="M1214 1935 c-13 -32 23 -63 40 -36 4 5 -3 7 -14 4 -16 -4 -20 0 -20
17 0 17 4 21 20 17 11 -3 18 -1 14 4 -8 14 -34 11 -40 -6z"/>
<path d="M1281 1937 c-17 -21 -3 -49 23 -45 15 2 21 10 21 28 0 28 -26 38 -44
17z m39 -17 c0 -21 -24 -28 -35 -10 -8 14 3 30 21 30 8 0 14 -9 14 -20z"/>
<path d="M1357 1943 c-14 -14 -6 -45 13 -50 11 -3 17 -9 14 -14 -3 -5 0 -9 5
-9 6 0 11 18 11 40 0 32 -4 40 -18 40 -10 0 -22 -3 -25 -7z m33 -23 c0 -11 -7
-20 -15 -20 -8 0 -15 9 -15 20 0 11 7 20 15 20 8 0 15 -9 15 -20z"/>
<path d="M1421 1915 c1 -29 1 -29 8 -5 4 14 13 25 21 25 8 0 17 -11 21 -25 6
-20 7 -21 8 -5 1 29 -12 44 -37 42 -18 -1 -22 -7 -21 -32z"/>
<path d="M1492 1920 c0 -19 2 -27 5 -17 2 9 2 25 0 35 -3 9 -5 1 -5 -18z"/>
<path d="M1572 1920 c0 -19 2 -27 5 -17 2 9 2 25 0 35 -3 9 -5 1 -5 -18z"/>
<path d="M1604 1935 c-9 -23 3 -45 25 -45 23 0 35 28 20 46 -15 18 -38 18 -45
-1z m41 -15 c0 -8 -8 -16 -17 -18 -13 -2 -18 3 -18 18 0 15 5 20 18 18 9 -2
17 -10 17 -18z"/>
<path d="M1671 1915 c1 -28 1 -28 8 -6 9 34 31 39 31 7 0 -14 4 -26 8 -26 5 0
7 13 4 30 -3 24 -9 29 -28 28 -20 -2 -24 -8 -23 -33z"/>
</g>
</svg>
